<?xml version="1.0" standalone="no"?>
<!DOCTYPE svg PUBLIC "-//W3C//DTD SVG 20010904//EN"
 "http://www.w3.org/TR/2001/REC-SVG-20010904/DTD/svg10.dtd">
<svg version="1.0" xmlns="http://www.w3.org/2000/svg"
 width="1024.000000pt" height="1024.000000pt" viewBox="0 0 1024.000000 1024.000000"
 preserveAspectRatio="xMidYMid meet">

<g transform="translate(0.000000,1024.000000) scale(0.100000,-0.100000)"
fill="#000000" stroke="none">
<path d="M6905 8950 c-160 -33 -289 -140 -365 -302 -81 -173 -89 -441 -29
-966 25 -220 74 -565 93 -655 12 -61 12 -68 -2 -62 -8 3 -46 11 -84 17 -199
35 -420 -83 -557 -297 -28 -44 -51 -85 -51 -90 0 -6 -28 -16 -63 -22 -216 -41
-417 -223 -516 -469 -26 -65 -29 -67 -81 -87 -254 -94 -370 -350 -445 -976
-31 -262 -40 -486 -27 -702 40 -688 213 -1176 566 -1599 104 -124 137 -179
170 -280 36 -109 46 -205 46 -453 0 -122 5 -256 10 -296 24 -184 138 -312 335
-374 318 -101 1190 13 1735 228 377 149 608 326 671 515 30 88 28 175 -12 460
-29 207 -33 262 -33 460 0 217 1 228 27 312 14 48 60 163 101 255 175 398 246
716 246 1102 0 349 -70 704 -250 1281 -166 530 -487 1505 -687 2090 -195 566
-231 647 -336 757 -117 122 -305 185 -462 153z m162 -285 c81 -24 143 -107
211 -285 80 -212 397 -1156 703 -2100 110 -338 211 -649 224 -690 l25 -75 -23
25 c-13 14 -77 86 -143 160 -150 171 -470 496 -640 651 -116 106 -244 212
-421 349 -69 54 -67 48 -118 355 -121 734 -157 1263 -97 1429 39 106 96 168
176 186 46 11 48 11 103 -5z m-478 -1967 c41 -20 217 -158 321 -252 212 -193
685 -660 943 -931 324 -340 455 -507 477 -607 17 -78 24 -337 12 -458 -6 -58
-23 -162 -37 -232 -43 -212 -84 -327 -253 -713 -45 -103 -58 -154 -72 -280
-19 -173 -8 -414 31 -700 11 -82 23 -197 26 -255 5 -104 4 -106 -26 -152 -135
-210 -810 -446 -1451 -507 -312 -30 -523 -21 -617 24 -40 20 -56 35 -72 69
-19 39 -21 60 -21 257 0 336 -18 474 -83 647 -38 101 -77 163 -182 287 -141
166 -218 286 -296 458 -91 203 -154 427 -196 704 -25 164 -27 203 -27 488 0
334 11 478 60 725 29 152 86 334 121 387 54 84 145 113 226 74 50 -24 201
-169 402 -386 288 -310 461 -522 492 -603 16 -43 16 -46 -3 -81 -13 -25 -35
-44 -74 -63 -247 -120 -559 79 -803 513 -57 100 -178 103 -237 6 -32 -51 -26
-96 25 -193 163 -311 429 -557 670 -620 145 -37 348 -26 471 27 26 11 48 18
50 16 2 -2 -5 -30 -17 -63 -59 -171 -85 -388 -70 -594 16 -213 36 -265 115
-295 72 -28 148 2 181 71 15 32 16 44 4 122 -20 128 -17 377 5 482 26 122 60
220 118 340 47 97 59 113 167 220 132 131 210 239 255 349 29 72 31 83 31 211
-1 156 -13 198 -94 323 -115 176 -551 638 -879 932 l-100 89 29 41 c40 55 119
114 182 136 63 22 132 18 196 -13z m-575 -408 c89 -43 569 -519 788 -780 44
-52 101 -129 126 -170 46 -74 47 -76 47 -160 0 -75 -4 -92 -30 -145 -18 -36
-58 -87 -101 -130 -68 -67 -151 -132 -158 -124 -2 2 -29 44 -61 93 -65 102
-147 212 -249 336 -226 273 -574 639 -697 732 -38 29 -69 60 -69 68 0 32 51
122 97 171 52 56 111 94 176 114 59 19 85 18 131 -5z"/>
<path d="M3500 7733 c-52 -8 -147 -47 -199 -81 -160 -106 -228 -348 -146 -518
42 -86 143 -183 227 -217 269 -107 563 51 611 327 38 222 -136 448 -373 485
-66 11 -76 11 -120 4z"/>
<path d="M2105 6073 c-154 -22 -276 -111 -343 -251 -36 -74 -37 -81 -37 -187
0 -104 2 -114 33 -178 43 -88 121 -166 209 -209 65 -31 73 -33 183 -33 97 0
124 4 173 24 120 48 220 158 259 285 72 237 -85 487 -339 541 -68 15 -83 16
-138 8z"/>
<path d="M3476 6069 c-125 -21 -257 -122 -317 -244 -33 -67 -34 -74 -34 -185
0 -109 2 -119 32 -183 157 -331 630 -333 793 -4 51 104 61 182 35 286 -40 163
-167 286 -337 326 -69 16 -98 17 -172 4z"/>
<path d="M2030 4401 c-123 -39 -212 -120 -272 -247 -31 -64 -33 -76 -33 -174
0 -97 2 -110 31 -170 78 -162 232 -260 410 -260 199 0 376 145 424 349 50 214
-100 447 -325 506 -77 20 -166 18 -235 -4z"/>
</g>
</svg>
